<svg width="20" height="25" viewBox="0 0 20 25" fill="none" xmlns="http://www.w3.org/2000/svg">
<path d="M16.521 13.2692C16.5452 11.3924 17.5531 9.61648 19.1521 8.63345C18.1434 7.19282 16.4538 6.27942 14.696 6.22443C12.8212 6.02763 11.0036 7.34631 10.0482 7.34631C9.0743 7.34631 7.60333 6.24396 6.01933 6.27655C3.95467 6.34326 2.02988 7.51712 1.02537 9.32219C-1.13391 13.0607 0.47672 18.5549 2.54514 21.5768C3.58001 23.0566 4.78948 24.7095 6.37204 24.6509C7.92068 24.5866 8.49907 23.6634 10.3684 23.6634C12.2204 23.6634 12.763 24.6509 14.3777 24.6136C16.0395 24.5866 17.0865 23.1273 18.085 21.6335C18.8286 20.5792 19.4007 19.4139 19.7803 18.1808C17.8274 17.3548 16.5233 15.3895 16.521 13.2692Z" fill="#7264D6"/>
<path d="M13.4711 4.23708C14.3772 3.14939 14.8236 1.75134 14.7155 0.339844C13.3312 0.485233 12.0526 1.14682 11.1343 2.19278C10.2363 3.21473 9.76899 4.58818 9.85733 5.94573C11.2421 5.95999 12.6034 5.31634 13.4711 4.23708Z" fill="#7264D6"/>
</svg>
