<svg width="24" height="27" viewBox="0 0 24 27" fill="none" xmlns="http://www.w3.org/2000/svg">
<path fill-rule="evenodd" clip-rule="evenodd" d="M0.195023 1.11893C0.069479 1.39675 0 1.73886 0 2.13793V24.8943C0 25.2941 0.0695224 25.6361 0.19514 25.9138L12.5916 13.5155L0.195023 1.11893ZM0.889567 26.6336C1.35039 26.8375 1.95483 26.7779 2.61457 26.4037L17.1947 18.1186L13.2987 14.2226L0.889567 26.6336ZM18.0971 17.6068L22.6802 15.0029C24.1176 14.1849 24.1176 12.8483 22.6802 12.0313L18.0949 9.42582L14.0058 13.5155L18.0971 17.6068ZM17.1931 8.91341L2.61457 0.629498C1.95491 0.254642 1.35054 0.195327 0.88974 0.399433L13.2987 12.8084L17.1931 8.91341Z" fill="#7264D6"/>
</svg>
